<?xml version="1.0" encoding="utf-8"?>
<!-- Generator: Adobe Illustrator 16.0.0, SVG Export Plug-In . SVG Version: 6.00 Build 0)  -->
<!DOCTYPE svg PUBLIC "-//W3C//DTD SVG 1.1//EN" "http://www.w3.org/Graphics/SVG/1.1/DTD/svg11.dtd">
<svg version="1.1" id="Layer_1" xmlns="http://www.w3.org/2000/svg" xmlns:xlink="http://www.w3.org/1999/xlink" x="0px" y="0px"
	 width="200px" height="200px" viewBox="0 0 200 200" enable-background="new 0 0 200 200" xml:space="preserve">
<rect fill="#5CADD6" width="200" height="200"/>
<g>
	<text transform="matrix(1 0 0 1 26.7251 87.8081)" font-family="'ComicSansMS-Bold'" font-size="24">*</text>
	<text transform="matrix(1 0 0 1 60.1836 87.8081)" font-family="'ComicSansMS-Bold'" font-size="24">*</text>
	<text transform="matrix(1 0 0 1 93.6421 87.8081)" font-family="'ComicSansMS-Bold'" font-size="24">*</text>
	<text transform="matrix(1 0 0 1 160.5596 87.8081)" font-family="'ComicSansMS-Bold'" font-size="24">*</text>
	<text transform="matrix(1 0 0 1 127.1016 87.8081)" font-family="'ComicSansMS-Bold'" font-size="24">*</text>
</g>
<g>
	<g>
		<text transform="matrix(1 0 0 1 28.0845 97.8081)" font-family="'ComicSansMS'" font-size="24">-</text>
		<text transform="matrix(1 0 0 1 61.543 97.8091)" font-family="'ComicSansMS'" font-size="24">-</text>
		<text transform="matrix(1 0 0 1 95.001 97.8091)" font-family="'ComicSansMS'" font-size="24">-</text>
		<text transform="matrix(1 0 0 1 128.459 97.8091)" font-family="'ComicSansMS'" font-size="24">-</text>
		<text transform="matrix(1 0 0 1 161.918 97.8091)" font-family="'ComicSansMS'" font-size="24">-</text>
	</g>
	<g>
		<text transform="matrix(2.6166 0 0 1 28.0269 112.8975)" font-family="'ComicSansMS'" font-size="9.1721">|</text>
		<text transform="matrix(2.6166 0 0 1 28.0264 128.7305)" font-family="'ComicSansMS'" font-size="9.1721">|</text>
		<text transform="matrix(2.6166 0 0 1 28.0264 144.5645)" font-family="'ComicSansMS'" font-size="9.1721">|</text>
		<text transform="matrix(2.6166 0 0 1 28.0269 160.3984)" font-family="'ComicSansMS'" font-size="9.1721">|</text>
		<text transform="matrix(2.6166 0 0 1 28.0264 176.2314)" font-family="'ComicSansMS'" font-size="9.1721">|</text>
	</g>
	<g>
		<text transform="matrix(2.6166 0 0 1 61.4844 112.8975)" font-family="'ComicSansMS'" font-size="9.1721">|</text>
		<text transform="matrix(2.6166 0 0 1 61.4839 128.7305)" font-family="'ComicSansMS'" font-size="9.1721">|</text>
		<text transform="matrix(2.6166 0 0 1 61.4839 144.5645)" font-family="'ComicSansMS'" font-size="9.1721">|</text>
		<text transform="matrix(2.6166 0 0 1 61.4844 160.3984)" font-family="'ComicSansMS'" font-size="9.1721">|</text>
	</g>
	<g>
		<text transform="matrix(2.6166 0 0 1 94.9424 112.8975)" font-family="'ComicSansMS'" font-size="9.1721">|</text>
		<text transform="matrix(2.6166 0 0 1 94.9419 128.7305)" font-family="'ComicSansMS'" font-size="9.1721">|</text>
		<text transform="matrix(2.6166 0 0 1 94.9419 144.5645)" font-family="'ComicSansMS'" font-size="9.1721">|</text>
	</g>
	<g>
		<text transform="matrix(2.6166 0 0 1 128.4004 112.8975)" font-family="'ComicSansMS'" font-size="9.1721">|</text>
		<text transform="matrix(2.6166 0 0 1 128.3994 128.7305)" font-family="'ComicSansMS'" font-size="9.1721">|</text>
	</g>
	<g>
		<text transform="matrix(2.6166 0 0 1 161.8613 112.8975)" font-family="'ComicSansMS'" font-size="9.1721">|</text>
	</g>
</g>
</svg>
